<?xml version="1.0" encoding="UTF-8"?>
<svg xmlns="http://www.w3.org/2000/svg" xmlns:xlink="http://www.w3.org/1999/xlink" width="15px" height="15px" viewBox="0 0 15 15" version="1.1">
<g id="surface1">
<path style=" stroke:none;fill-rule:evenodd;fill:rgb(96.862745%,57.647061%,10.196079%);fill-opacity:1;" d="M 14.671875 7.335938 C 14.671875 11.265625 11.484375 14.453125 7.554688 14.453125 C 3.625 14.453125 0.441406 11.265625 0.441406 7.335938 C 0.441406 3.40625 3.625 0.21875 7.554688 0.21875 C 11.484375 0.21875 14.671875 3.40625 14.671875 7.335938 Z M 9.265625 4.691406 C 10.253906 5.03125 10.980469 5.542969 10.835938 6.488281 C 10.734375 7.183594 10.347656 7.519531 9.835938 7.636719 C 10.539062 8 10.777344 8.691406 10.554688 9.53125 C 10.132812 10.734375 9.125 10.835938 7.789062 10.585938 L 7.464844 11.878906 L 6.679688 11.683594 L 7 10.40625 C 6.796875 10.355469 6.589844 10.300781 6.375 10.246094 L 6.054688 11.527344 L 5.273438 11.335938 L 5.597656 10.035156 L 4.015625 9.640625 L 4.40625 8.746094 C 4.40625 8.746094 4.984375 8.898438 4.976562 8.886719 C 5.199219 8.941406 5.296875 8.796875 5.335938 8.703125 L 6.214844 5.1875 C 6.226562 5.019531 6.167969 4.8125 5.851562 4.730469 C 5.863281 4.722656 5.28125 4.589844 5.28125 4.589844 L 5.488281 3.757812 L 7.070312 4.148438 L 7.390625 2.863281 L 8.175781 3.058594 L 7.859375 4.316406 C 8.070312 4.363281 8.285156 4.414062 8.488281 4.464844 L 8.800781 3.214844 L 9.585938 3.410156 Z M 7.390625 6.832031 C 7.921875 6.972656 9.085938 7.28125 9.289062 6.476562 C 9.496094 5.648438 8.367188 5.398438 7.8125 5.277344 C 7.75 5.261719 7.695312 5.25 7.648438 5.238281 L 7.257812 6.800781 C 7.296875 6.808594 7.339844 6.820312 7.390625 6.832031 Z M 6.785156 9.34375 C 7.421875 9.511719 8.824219 9.882812 9.046875 8.992188 C 9.273438 8.082031 7.917969 7.777344 7.253906 7.628906 C 7.179688 7.613281 7.117188 7.597656 7.0625 7.585938 L 6.632812 9.304688 C 6.675781 9.316406 6.726562 9.328125 6.785156 9.34375 Z M 6.785156 9.34375 "/>
</g>
</svg>
