<?xml version="1.0" encoding="UTF-8"?>
<svg xmlns="http://www.w3.org/2000/svg" xmlns:xlink="http://www.w3.org/1999/xlink" width="15px" height="15px" viewBox="0 0 15 15" version="1.1">
<g id="surface1">
<path style=" stroke:none;fill-rule:nonzero;fill:rgb(18.82353%,53.333336%,83.137256%);fill-opacity:1;" d="M 14.171875 8.984375 C 13.964844 10.039062 12.332031 11.195312 10.453125 11.421875 C 9.476562 11.539062 8.511719 11.644531 7.484375 11.597656 C 5.800781 11.519531 4.476562 11.195312 4.476562 11.195312 C 4.476562 11.359375 4.488281 11.515625 4.507812 11.660156 C 4.726562 13.320312 6.152344 13.421875 7.503906 13.464844 C 8.867188 13.511719 10.082031 13.128906 10.082031 13.128906 L 10.136719 14.363281 C 10.136719 14.363281 9.183594 14.875 7.484375 14.96875 C 6.546875 15.019531 5.382812 14.945312 4.027344 14.585938 C 1.089844 13.808594 0.582031 10.675781 0.507812 7.496094 C 0.484375 6.554688 0.496094 5.664062 0.496094 4.917969 C 0.496094 1.667969 2.625 0.714844 2.625 0.714844 C 3.699219 0.222656 5.542969 0.015625 7.457031 0 L 7.507812 0 C 9.421875 0.015625 11.265625 0.222656 12.339844 0.714844 C 12.339844 0.714844 14.46875 1.667969 14.46875 4.917969 C 14.46875 4.917969 14.496094 7.316406 14.171875 8.984375 "/>
<path style=" stroke:none;fill-rule:nonzero;fill:rgb(100%,100%,100%);fill-opacity:1;" d="M 11.957031 5.171875 L 11.957031 9.109375 L 10.398438 9.109375 L 10.398438 5.289062 C 10.398438 4.480469 10.058594 4.074219 9.382812 4.074219 C 8.632812 4.074219 8.257812 4.558594 8.257812 5.515625 L 8.257812 7.609375 L 6.707031 7.609375 L 6.707031 5.515625 C 6.707031 4.558594 6.332031 4.074219 5.582031 4.074219 C 4.902344 4.074219 4.566406 4.480469 4.566406 5.289062 L 4.566406 9.109375 L 3.003906 9.109375 L 3.003906 5.171875 C 3.003906 4.367188 3.210938 3.726562 3.621094 3.253906 C 4.046875 2.78125 4.601562 2.539062 5.289062 2.539062 C 6.089844 2.539062 6.691406 2.847656 7.09375 3.460938 L 7.480469 4.109375 L 7.871094 3.460938 C 8.269531 2.847656 8.875 2.539062 9.671875 2.539062 C 10.359375 2.539062 10.917969 2.78125 11.339844 3.253906 C 11.753906 3.726562 11.957031 4.367188 11.957031 5.171875 "/>
</g>
</svg>
