<?xml version="1.0" encoding="UTF-8"?>
<svg xmlns="http://www.w3.org/2000/svg" xmlns:xlink="http://www.w3.org/1999/xlink" width="15px" height="15px" viewBox="0 0 15 15" version="1.1">
<g id="surface1">
<path style=" stroke:none;fill-rule:nonzero;fill:rgb(100%,40.000001%,0%);fill-opacity:1;" d="M 7.5 0 C 3.359375 0 0 3.359375 0 7.5 C 0 8.328125 0.132812 9.125 0.382812 9.867188 L 2.625 9.867188 L 2.625 3.558594 L 7.5 8.433594 L 12.375 3.558594 L 12.375 9.867188 L 14.617188 9.867188 C 14.867188 9.125 15 8.328125 15 7.5 C 15 3.359375 11.640625 0 7.5 0 "/>
<path style=" stroke:none;fill-rule:nonzero;fill:rgb(29.803923%,29.803923%,29.803923%);fill-opacity:1;" d="M 6.378906 9.554688 L 4.25 7.425781 L 4.25 11.398438 L 1.089844 11.398438 C 2.40625 13.558594 4.785156 15 7.5 15 C 10.214844 15 12.59375 13.558594 13.910156 11.398438 L 10.75 11.398438 L 10.75 7.425781 L 7.5 10.675781 Z M 6.378906 9.554688 "/>
</g>
</svg>
