<?xml version="1.0" encoding="UTF-8"?>
<svg xmlns="http://www.w3.org/2000/svg" xmlns:xlink="http://www.w3.org/1999/xlink" width="15px" height="15px" viewBox="0 0 15 15" version="1.1">
<g id="surface1">
<path style=" stroke:none;fill-rule:nonzero;fill:rgb(10.588235%,56.862748%,85.490197%);fill-opacity:1;" d="M 8.144531 2.519531 C 8.4375 2.503906 8.6875 2.609375 8.902344 2.796875 C 9.039062 2.921875 9.132812 3.089844 9.203125 3.257812 C 9.234375 3.332031 9.269531 3.398438 9.304688 3.46875 C 9.367188 3.59375 9.425781 3.71875 9.480469 3.847656 C 9.519531 3.945312 9.570312 4.039062 9.621094 4.132812 C 9.679688 4.242188 9.722656 4.351562 9.761719 4.46875 C 9.78125 4.527344 9.78125 4.527344 9.828125 4.566406 C 9.847656 4.605469 9.859375 4.644531 9.875 4.683594 C 9.902344 4.730469 9.925781 4.78125 9.953125 4.828125 C 10.007812 4.9375 10.058594 5.042969 10.097656 5.15625 C 10.136719 5.257812 10.183594 5.34375 10.242188 5.433594 C 10.273438 5.484375 10.292969 5.535156 10.3125 5.59375 C 10.351562 5.699219 10.398438 5.796875 10.453125 5.894531 C 10.523438 6.019531 10.582031 6.140625 10.636719 6.273438 C 10.679688 6.378906 10.734375 6.480469 10.789062 6.582031 C 10.828125 6.660156 10.863281 6.738281 10.894531 6.816406 C 10.914062 6.847656 10.929688 6.882812 10.945312 6.910156 C 10.976562 6.976562 11.007812 7.042969 11.035156 7.113281 C 11.050781 7.144531 11.066406 7.175781 11.082031 7.203125 C 11.117188 7.273438 11.144531 7.339844 11.175781 7.410156 C 11.199219 7.453125 11.21875 7.5 11.242188 7.542969 C 11.265625 7.589844 11.265625 7.589844 11.289062 7.644531 C 11.320312 7.722656 11.355469 7.796875 11.394531 7.875 C 11.398438 7.886719 11.40625 7.902344 11.414062 7.917969 C 11.464844 8.023438 11.515625 8.125 11.570312 8.226562 C 11.625 8.332031 11.667969 8.445312 11.710938 8.558594 C 11.730469 8.617188 11.730469 8.617188 11.777344 8.683594 C 11.847656 8.910156 11.851562 9.179688 11.777344 9.410156 C 11.761719 9.425781 11.746094 9.4375 11.730469 9.453125 C 11.722656 9.472656 11.71875 9.488281 11.710938 9.503906 C 11.609375 9.746094 11.414062 9.898438 11.175781 10 C 10.988281 10.058594 10.796875 10.078125 10.605469 10.097656 C 10.496094 10.109375 10.386719 10.125 10.277344 10.148438 C 10.191406 10.164062 10.101562 10.167969 10.015625 10.175781 C 9.941406 10.179688 9.941406 10.179688 9.867188 10.203125 C 9.78125 10.226562 9.703125 10.234375 9.609375 10.238281 C 9.5 10.246094 9.40625 10.253906 9.300781 10.285156 C 9.230469 10.300781 9.160156 10.304688 9.085938 10.308594 C 9 10.3125 8.929688 10.316406 8.84375 10.339844 C 8.734375 10.371094 8.628906 10.375 8.515625 10.378906 C 8.457031 10.386719 8.40625 10.390625 8.347656 10.410156 C 8.261719 10.433594 8.179688 10.4375 8.089844 10.441406 C 8.003906 10.449219 7.929688 10.453125 7.847656 10.476562 C 7.738281 10.507812 7.632812 10.511719 7.519531 10.515625 C 7.441406 10.519531 7.441406 10.519531 7.359375 10.546875 C 7.253906 10.574219 7.144531 10.578125 7.035156 10.582031 C 6.953125 10.589844 6.890625 10.613281 6.816406 10.636719 C 6.753906 10.644531 6.691406 10.652344 6.628906 10.65625 C 6.46875 10.671875 6.308594 10.691406 6.148438 10.714844 C 6.128906 10.71875 6.105469 10.722656 6.085938 10.726562 C 5.972656 10.742188 5.859375 10.757812 5.746094 10.777344 C 5.636719 10.792969 5.523438 10.804688 5.410156 10.8125 C 5.34375 10.820312 5.28125 10.828125 5.214844 10.839844 C 5.09375 10.652344 5.003906 10.445312 4.914062 10.242188 C 4.863281 10.132812 4.8125 10.023438 4.757812 9.914062 C 4.726562 9.859375 4.699219 9.800781 4.675781 9.746094 C 4.628906 9.644531 4.582031 9.550781 4.53125 9.453125 C 4.476562 9.34375 4.425781 9.238281 4.382812 9.125 C 4.335938 9.011719 4.277344 8.902344 4.21875 8.796875 C 4.140625 8.648438 4.066406 8.5 4.007812 8.34375 C 3.988281 8.289062 3.988281 8.289062 3.941406 8.226562 C 3.925781 8.183594 3.910156 8.136719 3.894531 8.089844 C 3.871094 8.046875 3.847656 8 3.824219 7.953125 C 3.8125 7.925781 3.796875 7.898438 3.78125 7.871094 C 3.773438 7.855469 3.765625 7.839844 3.757812 7.824219 C 3.664062 7.636719 3.570312 7.449219 3.488281 7.257812 C 3.457031 7.183594 3.417969 7.113281 3.382812 7.042969 C 3.355469 6.992188 3.335938 6.9375 3.316406 6.886719 C 3.28125 6.789062 3.28125 6.789062 3.222656 6.703125 C 3.207031 6.628906 3.203125 6.59375 3.222656 6.523438 C 3.335938 6.375 3.492188 6.261719 3.640625 6.148438 C 3.75 6.058594 3.855469 5.960938 3.960938 5.863281 C 4.03125 5.800781 4.101562 5.734375 4.175781 5.675781 C 4.246094 5.613281 4.316406 5.550781 4.390625 5.488281 C 4.4375 5.441406 4.488281 5.398438 4.539062 5.355469 C 4.636719 5.273438 4.726562 5.191406 4.816406 5.105469 C 4.921875 5.011719 5.023438 4.917969 5.132812 4.832031 C 5.300781 4.699219 5.457031 4.550781 5.613281 4.40625 C 5.734375 4.292969 5.855469 4.179688 5.992188 4.082031 C 6.085938 4.011719 6.171875 3.929688 6.253906 3.84375 C 6.324219 3.777344 6.394531 3.710938 6.472656 3.652344 C 6.628906 3.53125 6.769531 3.398438 6.914062 3.265625 C 7.058594 3.132812 7.203125 3.003906 7.351562 2.878906 C 7.382812 2.851562 7.410156 2.824219 7.441406 2.800781 C 7.550781 2.699219 7.652344 2.640625 7.789062 2.589844 C 7.808594 2.582031 7.828125 2.574219 7.847656 2.5625 C 7.945312 2.53125 8.042969 2.527344 8.144531 2.519531 Z M 8.144531 2.519531 "/>
<path style=" stroke:none;fill-rule:nonzero;fill:rgb(11.372549%,56.862748%,85.490197%);fill-opacity:1;" d="M 2.410156 7.160156 C 2.46875 7.199219 2.480469 7.222656 2.5 7.289062 C 2.527344 7.367188 2.566406 7.4375 2.605469 7.511719 C 2.664062 7.609375 2.714844 7.710938 2.757812 7.816406 C 2.78125 7.863281 2.804688 7.910156 2.824219 7.957031 C 2.871094 8.058594 2.917969 8.15625 2.957031 8.253906 C 3 8.355469 3.046875 8.449219 3.101562 8.539062 C 3.140625 8.613281 3.167969 8.6875 3.199219 8.761719 C 3.230469 8.835938 3.269531 8.910156 3.308594 8.984375 C 3.355469 9.078125 3.398438 9.175781 3.445312 9.273438 C 3.472656 9.328125 3.5 9.386719 3.53125 9.441406 C 3.570312 9.523438 3.570312 9.523438 3.589844 9.574219 C 3.621094 9.648438 3.65625 9.71875 3.695312 9.789062 C 3.753906 9.898438 3.804688 10.011719 3.847656 10.128906 C 3.878906 10.203125 3.917969 10.265625 3.960938 10.335938 C 4 10.40625 4.027344 10.484375 4.058594 10.5625 C 4.078125 10.617188 4.078125 10.617188 4.113281 10.671875 C 4.195312 10.800781 4.242188 10.949219 4.289062 11.089844 C 4.125 11.175781 3.953125 11.25 3.785156 11.324219 C 3.765625 11.332031 3.75 11.339844 3.730469 11.347656 C 3.714844 11.351562 3.699219 11.359375 3.683594 11.367188 C 3.652344 11.378906 3.621094 11.394531 3.59375 11.410156 C 3.359375 11.519531 3.058594 11.507812 2.816406 11.433594 C 2.71875 11.390625 2.636719 11.335938 2.550781 11.273438 C 2.519531 11.25 2.519531 11.25 2.488281 11.230469 C 2.308594 11.070312 2.207031 10.867188 2.132812 10.644531 C 2.113281 10.585938 2.113281 10.585938 2.0625 10.546875 C 2.039062 10.480469 2.015625 10.417969 1.992188 10.351562 C 1.972656 10.292969 1.972656 10.292969 1.925781 10.25 C 1.910156 10.210938 1.894531 10.175781 1.878906 10.136719 C 1.855469 10.089844 1.832031 10.046875 1.808594 10 C 1.785156 9.953125 1.785156 9.953125 1.765625 9.902344 C 1.734375 9.828125 1.699219 9.761719 1.660156 9.691406 C 1.59375 9.558594 1.535156 9.425781 1.484375 9.285156 C 1.464844 9.226562 1.464844 9.226562 1.414062 9.183594 C 1.398438 9.148438 1.386719 9.113281 1.371094 9.078125 C 1.339844 8.996094 1.304688 8.921875 1.261719 8.84375 C 1.121094 8.566406 1.097656 8.292969 1.179688 7.996094 C 1.273438 7.746094 1.453125 7.535156 1.691406 7.410156 C 1.726562 7.394531 1.761719 7.382812 1.796875 7.367188 C 1.957031 7.308594 2.105469 7.234375 2.253906 7.15625 C 2.3125 7.128906 2.347656 7.140625 2.410156 7.160156 Z M 2.410156 7.160156 "/>
<path style=" stroke:none;fill-rule:nonzero;fill:rgb(11.372549%,56.862748%,85.490197%);fill-opacity:1;" d="M 7.324219 11.203125 C 7.378906 11.285156 7.421875 11.367188 7.464844 11.453125 C 7.476562 11.476562 7.488281 11.5 7.5 11.523438 C 7.511719 11.542969 7.523438 11.566406 7.535156 11.589844 C 7.546875 11.613281 7.558594 11.636719 7.570312 11.660156 C 7.703125 11.933594 7.710938 12.234375 7.613281 12.519531 C 7.5625 12.632812 7.496094 12.722656 7.417969 12.816406 C 7.40625 12.832031 7.398438 12.847656 7.386719 12.859375 C 7.265625 12.996094 7.097656 13.0625 6.933594 13.136719 C 6.886719 13.160156 6.839844 13.179688 6.792969 13.203125 C 6.429688 13.375 6.121094 13.46875 5.71875 13.351562 C 5.371094 13.222656 5.179688 12.929688 5.03125 12.613281 C 5 12.539062 4.972656 12.46875 4.945312 12.394531 C 4.910156 12.304688 4.867188 12.226562 4.820312 12.144531 C 4.726562 11.972656 4.632812 11.808594 4.613281 11.613281 C 4.773438 11.53125 4.902344 11.488281 5.082031 11.480469 C 5.136719 11.476562 5.183594 11.46875 5.238281 11.453125 C 5.347656 11.421875 5.460938 11.421875 5.578125 11.417969 C 5.65625 11.410156 5.65625 11.410156 5.738281 11.386719 C 5.851562 11.355469 5.960938 11.351562 6.082031 11.347656 C 6.167969 11.34375 6.167969 11.34375 6.246094 11.316406 C 6.363281 11.285156 6.476562 11.285156 6.59375 11.28125 C 6.675781 11.277344 6.675781 11.277344 6.734375 11.25 C 6.8125 11.21875 6.886719 11.21875 6.96875 11.214844 C 7.308594 11.199219 7.308594 11.199219 7.324219 11.203125 Z M 7.324219 11.203125 "/>
<path style=" stroke:none;fill-rule:nonzero;fill:rgb(12.156863%,57.254905%,85.09804%);fill-opacity:1;" d="M 13.75 4.023438 C 13.863281 4.066406 13.917969 4.132812 13.980469 4.234375 C 14.023438 4.394531 14.019531 4.515625 13.941406 4.664062 C 13.871094 4.757812 13.773438 4.808594 13.664062 4.859375 C 13.628906 4.878906 13.628906 4.878906 13.589844 4.894531 C 13.566406 4.90625 13.542969 4.917969 13.515625 4.933594 C 13.46875 4.957031 13.421875 4.980469 13.375 5.003906 C 13.273438 5.054688 13.167969 5.097656 13.0625 5.136719 C 13.003906 5.160156 12.945312 5.1875 12.886719 5.21875 C 12.855469 5.230469 12.855469 5.230469 12.828125 5.246094 C 12.78125 5.269531 12.738281 5.292969 12.695312 5.3125 C 12.546875 5.363281 12.398438 5.367188 12.253906 5.304688 C 12.167969 5.253906 12.121094 5.203125 12.078125 5.113281 C 12.050781 4.972656 12.03125 4.8125 12.101562 4.683594 C 12.226562 4.527344 12.410156 4.460938 12.589844 4.386719 C 12.699219 4.339844 12.804688 4.292969 12.910156 4.238281 C 13.023438 4.183594 13.140625 4.132812 13.261719 4.085938 C 13.429688 4.019531 13.5625 3.996094 13.75 4.023438 Z M 13.75 4.023438 "/>
<path style=" stroke:none;fill-rule:nonzero;fill:rgb(12.156863%,56.862748%,85.09804%);fill-opacity:1;" d="M 12.914062 7.316406 C 12.964844 7.335938 13.011719 7.347656 13.0625 7.363281 C 13.148438 7.386719 13.210938 7.40625 13.285156 7.453125 C 13.328125 7.464844 13.375 7.476562 13.417969 7.484375 C 13.492188 7.507812 13.558594 7.535156 13.628906 7.566406 C 13.675781 7.589844 13.71875 7.605469 13.765625 7.625 C 13.871094 7.675781 13.914062 7.734375 13.960938 7.835938 C 14 7.992188 13.992188 8.132812 13.910156 8.273438 C 13.816406 8.378906 13.726562 8.410156 13.585938 8.429688 C 13.410156 8.433594 13.25 8.363281 13.09375 8.296875 C 13.015625 8.269531 12.9375 8.242188 12.859375 8.21875 C 12.726562 8.175781 12.597656 8.125 12.46875 8.074219 C 12.386719 8.039062 12.304688 8.007812 12.222656 7.976562 C 12.105469 7.925781 12.054688 7.867188 12.007812 7.75 C 11.988281 7.609375 11.976562 7.457031 12.0625 7.335938 C 12.289062 7.105469 12.648438 7.144531 12.914062 7.316406 Z M 12.914062 7.316406 "/>
<path style=" stroke:none;fill-rule:nonzero;fill:rgb(12.156863%,56.862748%,85.09804%);fill-opacity:1;" d="M 11.058594 1.816406 C 11.113281 1.875 11.113281 1.875 11.152344 1.933594 C 11.167969 1.953125 11.183594 1.976562 11.199219 2 C 11.203125 2.0625 11.203125 2.121094 11.203125 2.183594 C 11.203125 2.207031 11.203125 2.207031 11.203125 2.230469 C 11.203125 2.316406 11.203125 2.359375 11.152344 2.433594 C 11.140625 2.46875 11.128906 2.507812 11.121094 2.542969 C 11.101562 2.597656 11.082031 2.652344 11.058594 2.703125 C 11.03125 2.769531 11.007812 2.832031 10.988281 2.898438 C 10.964844 2.980469 10.933594 3.058594 10.898438 3.140625 C 10.859375 3.242188 10.824219 3.34375 10.789062 3.449219 C 10.75 3.539062 10.707031 3.609375 10.625 3.664062 C 10.472656 3.714844 10.324219 3.730469 10.171875 3.675781 C 10.070312 3.613281 10.007812 3.558594 9.960938 3.445312 C 9.917969 3.210938 9.992188 3.027344 10.082031 2.8125 C 10.113281 2.738281 10.140625 2.660156 10.167969 2.578125 C 10.207031 2.460938 10.246094 2.347656 10.296875 2.230469 C 10.316406 2.183594 10.335938 2.132812 10.351562 2.085938 C 10.40625 1.941406 10.480469 1.847656 10.617188 1.773438 C 10.765625 1.71875 10.925781 1.746094 11.058594 1.816406 Z M 11.058594 1.816406 "/>
<path style=" stroke:none;fill-rule:nonzero;fill:rgb(24.705882%,61.176473%,83.92157%);fill-opacity:1;" d="M 7.835938 2.589844 C 7.835938 2.605469 7.835938 2.621094 7.835938 2.636719 C 7.804688 2.652344 7.777344 2.667969 7.746094 2.683594 C 7.730469 2.691406 7.714844 2.699219 7.695312 2.707031 C 7.652344 2.726562 7.652344 2.726562 7.605469 2.726562 C 7.597656 2.746094 7.59375 2.761719 7.589844 2.78125 C 7.550781 2.855469 7.519531 2.875 7.445312 2.914062 C 7.425781 2.925781 7.40625 2.933594 7.382812 2.945312 C 7.324219 2.976562 7.324219 2.976562 7.273438 3 C 7.226562 3.023438 7.226562 3.023438 7.210938 3.089844 C 7.195312 3.089844 7.179688 3.089844 7.164062 3.089844 C 7.152344 3.125 7.152344 3.125 7.140625 3.160156 C 7.097656 3.195312 7.097656 3.195312 7.046875 3.230469 C 6.976562 3.273438 6.976562 3.273438 6.933594 3.339844 C 6.917969 3.339844 6.902344 3.339844 6.886719 3.339844 C 6.878906 3.371094 6.871094 3.402344 6.863281 3.433594 C 6.839844 3.433594 6.816406 3.433594 6.792969 3.433594 C 6.792969 3.445312 6.792969 3.460938 6.792969 3.476562 C 6.753906 3.5 6.714844 3.523438 6.675781 3.546875 C 6.644531 3.574219 6.613281 3.605469 6.585938 3.636719 C 6.550781 3.664062 6.515625 3.6875 6.480469 3.714844 C 6.402344 3.773438 6.328125 3.835938 6.257812 3.910156 C 6.238281 3.925781 6.21875 3.945312 6.199219 3.964844 C 6.144531 4.019531 6.144531 4.019531 6.101562 4.082031 C 6.046875 4.140625 6 4.167969 5.925781 4.203125 C 5.871094 4.238281 5.835938 4.289062 5.796875 4.339844 C 5.742188 4.359375 5.742188 4.359375 5.703125 4.363281 C 5.703125 4.378906 5.703125 4.394531 5.703125 4.410156 C 5.664062 4.441406 5.625 4.46875 5.585938 4.5 C 5.5625 4.523438 5.5625 4.523438 5.535156 4.550781 C 5.402344 4.683594 5.265625 4.8125 5.101562 4.910156 C 5.136719 4.828125 5.183594 4.78125 5.25 4.722656 C 5.273438 4.703125 5.292969 4.6875 5.3125 4.667969 C 5.347656 4.640625 5.347656 4.640625 5.378906 4.613281 C 5.417969 4.582031 5.453125 4.546875 5.492188 4.515625 C 5.511719 4.496094 5.53125 4.480469 5.550781 4.464844 C 5.59375 4.425781 5.636719 4.386719 5.679688 4.347656 C 5.882812 4.160156 5.882812 4.160156 5.996094 4.078125 C 6.089844 4.007812 6.171875 3.929688 6.253906 3.84375 C 6.324219 3.777344 6.394531 3.710938 6.472656 3.652344 C 6.628906 3.53125 6.769531 3.398438 6.914062 3.265625 C 7.058594 3.132812 7.203125 3.003906 7.351562 2.878906 C 7.382812 2.851562 7.410156 2.824219 7.441406 2.800781 C 7.546875 2.703125 7.683594 2.589844 7.835938 2.589844 Z M 7.835938 2.589844 "/>
<path style=" stroke:none;fill-rule:nonzero;fill:rgb(23.921569%,60.784316%,83.529413%);fill-opacity:1;" d="M 10.734375 3.410156 C 10.75 3.410156 10.765625 3.410156 10.78125 3.410156 C 10.753906 3.496094 10.730469 3.570312 10.664062 3.636719 C 10.613281 3.652344 10.613281 3.652344 10.570312 3.660156 C 10.570312 3.636719 10.570312 3.613281 10.570312 3.589844 C 10.59375 3.589844 10.617188 3.589844 10.640625 3.589844 C 10.648438 3.570312 10.65625 3.546875 10.664062 3.523438 C 10.679688 3.523438 10.695312 3.523438 10.710938 3.523438 C 10.71875 3.484375 10.726562 3.449219 10.734375 3.410156 Z M 10.734375 3.410156 "/>
</g>
</svg>
