<?xml version="1.0" encoding="UTF-8"?>
<svg xmlns="http://www.w3.org/2000/svg" xmlns:xlink="http://www.w3.org/1999/xlink" width="15px" height="15px" viewBox="0 0 15 15" version="1.1">
<g id="surface1">
<path style=" stroke:none;fill-rule:nonzero;fill:rgb(0%,59.607846%,91.764706%);fill-opacity:1;" d="M 7.5 15 C 11.640625 15 15 11.640625 15 7.5 C 15 3.359375 11.640625 0 7.5 0 C 3.359375 0 0 3.359375 0 7.5 C 0 11.640625 3.359375 15 7.5 15 Z M 7.5 15 "/>
<path style=" stroke:none;fill-rule:nonzero;fill:rgb(100%,100%,100%);fill-opacity:1;" d="M 10.0625 4.1875 L 4.9375 4.1875 C 3.996094 4.1875 3.398438 5.203125 3.875 6.023438 L 7.035156 11.503906 C 7.242188 11.859375 7.757812 11.859375 7.964844 11.503906 L 11.125 6.023438 C 11.597656 5.203125 11.003906 4.1875 10.0625 4.1875 Z M 7.03125 9.859375 L 6.34375 8.527344 L 4.683594 5.554688 C 4.574219 5.367188 4.707031 5.121094 4.9375 5.121094 L 7.03125 5.121094 Z M 10.316406 5.554688 L 8.65625 8.527344 L 7.964844 9.859375 L 7.964844 5.121094 L 10.058594 5.121094 C 10.289062 5.121094 10.425781 5.363281 10.316406 5.554688 Z M 10.316406 5.554688 "/>
</g>
</svg>
