<?xml version="1.0" encoding="UTF-8"?>
<svg xmlns="http://www.w3.org/2000/svg" xmlns:xlink="http://www.w3.org/1999/xlink" width="15px" height="15px" viewBox="0 0 15 15" version="1.1">
<g id="surface1">
<path style=" stroke:none;fill-rule:evenodd;fill:rgb(14.901961%,63.137257%,48.235294%);fill-opacity:1;" d="M 15 7.5 C 15 3.359375 11.640625 0 7.5 0 C 3.359375 0 0 3.359375 0 7.5 C 0 11.640625 3.359375 15 7.5 15 C 11.640625 15 15 11.640625 15 7.5 Z M 15 7.5 "/>
<path style=" stroke:none;fill-rule:evenodd;fill:rgb(100%,100%,100%);fill-opacity:1;" d="M 8.402344 8.148438 C 8.347656 8.152344 8.082031 8.167969 7.492188 8.167969 C 7.015625 8.167969 6.683594 8.152344 6.566406 8.148438 C 4.746094 8.070312 3.382812 7.75 3.382812 7.371094 C 3.382812 6.992188 4.746094 6.675781 6.566406 6.59375 L 6.566406 7.832031 C 6.6875 7.839844 7.027344 7.863281 7.5 7.863281 C 8.0625 7.863281 8.347656 7.839844 8.402344 7.832031 L 8.402344 6.59375 C 10.21875 6.675781 11.578125 6.992188 11.578125 7.371094 C 11.578125 7.75 10.21875 8.066406 8.402344 8.148438 M 8.402344 6.464844 L 8.402344 5.355469 L 10.9375 5.355469 L 10.9375 3.664062 L 4.027344 3.664062 L 4.027344 5.355469 L 6.566406 5.355469 L 6.566406 6.464844 C 4.503906 6.558594 2.953125 6.96875 2.953125 7.457031 C 2.953125 7.945312 4.503906 8.355469 6.566406 8.449219 L 6.566406 12.003906 L 8.402344 12.003906 L 8.402344 8.449219 C 10.460938 8.355469 12.007812 7.945312 12.007812 7.457031 C 12.007812 6.96875 10.460938 6.5625 8.402344 6.464844 "/>
</g>
</svg>
